<svg width="41" height="40" viewBox="0 0 41 40" fill="none" xmlns="http://www.w3.org/2000/svg">
<path fill-rule="evenodd" clip-rule="evenodd" d="M20.5 40C31.5458 40 40.5 31.0457 40.5 20C40.5 8.9543 31.5458 0 20.5 0C9.45429 0 0.5 8.9543 0.5 20C0.5 31.0457 9.45429 40 20.5 40ZM23.587 15.4526C25.2918 13.7477 25.2918 10.9836 23.587 9.27866C21.8821 7.57378 19.118 7.57378 17.4131 9.27866C15.7083 10.9836 15.7083 13.7477 17.4131 15.4526L20.5 18.5395L23.587 15.4526ZM25.0475 23.087C26.7524 24.7919 29.5165 24.7919 31.2214 23.087C32.9262 21.3821 32.9262 18.618 31.2214 16.9131C29.5165 15.2083 26.7524 15.2083 25.0475 16.9131L21.9606 20.0001L25.0475 23.087ZM23.587 30.7214C25.2918 29.0165 25.2918 26.2524 23.587 24.5475L20.5 21.4606L17.4131 24.5475C15.7083 26.2524 15.7083 29.0165 17.4131 30.7214C19.118 32.4263 21.8821 32.4263 23.587 30.7214ZM9.77863 23.087C8.07379 21.3821 8.07379 18.618 9.77863 16.9131C11.4836 15.2083 14.2477 15.2083 15.9526 16.9131L19.0395 20.0001L15.9526 23.087C14.2477 24.7919 11.4836 24.7919 9.77863 23.087Z" fill="white"/>
</svg>
